<?xml version="1.0" encoding="UTF-8"?>
<!DOCTYPE svg PUBLIC "-//W3C//DTD SVG 1.1//EN" "http://www.w3.org/Graphics/SVG/1.1/DTD/svg11.dtd">
<svg xmlns="http://www.w3.org/2000/svg" version="1.1" width="2585px" height="676px" style="shape-rendering:geometricPrecision; text-rendering:geometricPrecision; image-rendering:optimizeQuality; fill-rule:evenodd; clip-rule:evenodd" xmlns:xlink="http://www.w3.org/1999/xlink">
<g><path style="opacity:0.989" fill="#f18426" d="M 718.5,-0.5 C 737.5,-0.5 756.5,-0.5 775.5,-0.5C 939.171,3.05771 1098.5,31.5577 1253.5,85C 1335.59,113.211 1412.59,151.211 1484.5,199C 1507.5,215.164 1529.17,232.997 1549.5,252.5C 1474.72,220.626 1397.72,194.126 1318.5,173C 1196.48,138.929 1072.48,115.263 946.5,102C 776.026,89.7193 609.026,108.386 445.5,158C 369.386,181.346 298.386,215.013 232.5,259C 190.709,287.791 155.209,322.958 126,364.5C 75.599,444.906 76.2656,524.906 128,604.5C 145.391,630.236 166.057,653.236 190,673.5C 190.464,674.094 190.631,674.761 190.5,675.5C 190.167,675.5 189.833,675.5 189.5,675.5C 151.735,657.542 116.735,635.375 84.5,609C 41.5202,569.886 15.6869,521.386 7,463.5C 3.77896,446.118 1.27896,428.785 -0.5,411.5C -0.5,403.5 -0.5,395.5 -0.5,387.5C 3.9638,331.909 23.4638,282.243 58,238.5C 91.2914,197.865 130.125,163.699 174.5,136C 256.303,87.1674 343.97,52.8341 437.5,33C 530.237,12.7897 623.904,1.62298 718.5,-0.5 Z"/></g>
<g><path style="opacity:0.908" fill="#0f264c" d="M 2526.5,278.5 C 2559.69,277.522 2575.52,293.522 2574,326.5C 2570.81,342.023 2561.65,352.19 2546.5,357C 2522.34,362.172 2505.18,353.672 2495,331.5C 2489.6,304.121 2500.1,286.454 2526.5,278.5 Z M 2528.5,287.5 C 2553.4,287.904 2564.9,300.571 2563,325.5C 2557.23,344.136 2544.73,351.636 2525.5,348C 2508.92,341.007 2502.08,328.507 2505,310.5C 2508.81,298.518 2516.65,290.851 2528.5,287.5 Z M 2528.5,305.5 C 2534.27,304.237 2538.6,306.071 2541.5,311C 2540.74,312.512 2539.74,313.846 2538.5,315C 2535.24,316.043 2531.91,316.543 2528.5,316.5C 2528.5,312.833 2528.5,309.167 2528.5,305.5 Z"/></g>
<g><path style="opacity:0.973" fill="#0f264c" d="M 855.5,295.5 C 865.833,295.5 876.167,295.5 886.5,295.5C 885.374,342.155 885.207,388.821 886,435.5C 896.096,419.739 908.596,406.239 923.5,395C 940.104,385.568 957.771,382.901 976.5,387C 989.974,391.14 998.807,399.974 1003,413.5C 1004.72,419.718 1005.72,426.051 1006,432.5C 1006.33,470.167 1006.67,507.833 1007,545.5C 1007.54,550.088 1009.7,553.588 1013.5,556C 1017.82,556.87 1022.16,557.703 1026.5,558.5C 1025.68,566.135 1025.01,573.801 1024.5,581.5C 997.167,581.5 969.833,581.5 942.5,581.5C 943.166,573.517 943.499,565.517 943.5,557.5C 954.941,558.886 961.107,553.886 962,542.5C 962.667,509.833 962.667,477.167 962,444.5C 959.391,425.947 949.891,421.447 933.5,431C 927.742,434.754 922.575,439.254 918,444.5C 905.845,459.468 895.178,475.468 886,492.5C 885.052,511.219 885.386,529.886 887,548.5C 888.077,551.913 890.244,554.413 893.5,556C 897.395,557.266 901.395,557.766 905.5,557.5C 904.944,565.192 904.277,572.859 903.5,580.5C 876.175,581.5 848.841,581.833 821.5,581.5C 822.147,573.852 822.647,566.185 823,558.5C 833.621,558.869 839.621,553.869 841,543.5C 841.667,473.167 841.667,402.833 841,332.5C 838.775,322.117 832.275,317.784 821.5,319.5C 822.154,313.19 822.654,306.857 823,300.5C 823.5,300 824,299.5 824.5,299C 835.018,298.153 845.352,296.986 855.5,295.5 Z"/></g>
<g><path style="opacity:0.971" fill="#0f264c" d="M 1507.5,295.5 C 1517.83,295.5 1528.17,295.5 1538.5,295.5C 1537.35,378.487 1537.19,461.487 1538,544.5C 1538.15,548.463 1539.65,551.796 1542.5,554.5C 1547.25,556.697 1552.25,558.031 1557.5,558.5C 1556.72,566.141 1556.06,573.808 1555.5,581.5C 1528.17,581.5 1500.83,581.5 1473.5,581.5C 1474.22,573.521 1474.56,565.521 1474.5,557.5C 1485.47,558.952 1491.63,554.286 1493,543.5C 1493.67,473.5 1493.67,403.5 1493,333.5C 1491.34,322.4 1484.84,317.733 1473.5,319.5C 1473.88,312.81 1474.55,306.143 1475.5,299.5C 1486.3,298.219 1496.97,296.886 1507.5,295.5 Z"/></g>
<g><path style="opacity:0.922" fill="#0f264c" d="M 2529.5,297.5 C 2536.36,297.281 2542.86,298.614 2549,301.5C 2553.2,308.637 2552.03,314.637 2545.5,319.5C 2547.19,321.359 2548.69,323.359 2550,325.5C 2551.01,329.883 2552.18,334.216 2553.5,338.5C 2549.83,339.833 2546.17,339.833 2542.5,338.5C 2541.15,334.112 2539.65,329.779 2538,325.5C 2535.05,323.924 2531.88,323.257 2528.5,323.5C 2528.5,328.833 2528.5,334.167 2528.5,339.5C 2525.17,339.5 2521.83,339.5 2518.5,339.5C 2518.5,325.833 2518.5,312.167 2518.5,298.5C 2522.37,298.815 2526.04,298.482 2529.5,297.5 Z M 2528.5,305.5 C 2528.5,309.167 2528.5,312.833 2528.5,316.5C 2531.91,316.543 2535.24,316.043 2538.5,315C 2539.74,313.846 2540.74,312.512 2541.5,311C 2538.6,306.071 2534.27,304.237 2528.5,305.5 Z"/></g>
<g><path style="opacity:0.981" fill="#0f264c" d="M 269.5,330.5 C 331.833,330.5 394.167,330.5 456.5,330.5C 456.259,349.519 455.593,368.519 454.5,387.5C 444.5,387.5 434.5,387.5 424.5,387.5C 424.666,382.489 424.499,377.489 424,372.5C 421.031,365.925 415.864,362.758 408.5,363C 400.507,362.5 392.507,362.334 384.5,362.5C 384.333,421.834 384.5,481.168 385,540.5C 385.107,553.438 391.607,559.105 404.5,557.5C 404.065,565.495 403.731,573.495 403.5,581.5C 375.167,581.5 346.833,581.5 318.5,581.5C 319.099,573.514 319.432,565.514 319.5,557.5C 330.941,558.886 337.107,553.886 338,542.5C 338.5,482.501 338.667,422.501 338.5,362.5C 331.159,362.334 323.826,362.5 316.5,363C 308.728,362.462 303.228,365.629 300,372.5C 298.386,377.407 297.219,382.407 296.5,387.5C 286.5,387.5 276.5,387.5 266.5,387.5C 267.605,368.506 268.605,349.506 269.5,330.5 Z"/></g>
<g><path style="opacity:0.975" fill="#0f264c" d="M 2454.5,336.5 C 2455.83,336.5 2457.17,336.5 2458.5,336.5C 2458.5,354.167 2458.5,371.833 2458.5,389.5C 2475.5,389.5 2492.5,389.5 2509.5,389.5C 2508.87,398.838 2508.21,408.171 2507.5,417.5C 2491.17,417.5 2474.83,417.5 2458.5,417.5C 2458.33,453.835 2458.5,490.168 2459,526.5C 2460.36,548.272 2470.86,554.105 2490.5,544C 2495.31,540.692 2499.97,537.192 2504.5,533.5C 2510.64,540.433 2516.31,547.767 2521.5,555.5C 2498.56,581.311 2470.56,589.144 2437.5,579C 2424.79,572.76 2417.63,562.594 2416,548.5C 2415.39,541.842 2414.89,535.175 2414.5,528.5C 2415.12,491.602 2415.78,454.769 2416.5,418C 2408.17,417.5 2399.84,417.334 2391.5,417.5C 2391.83,408.167 2392.17,398.833 2392.5,389.5C 2400.75,389.816 2408.92,389.482 2417,388.5C 2417.63,376.165 2418.3,363.831 2419,351.5C 2419.19,349.423 2419.69,347.423 2420.5,345.5C 2432.03,342.787 2443.36,339.787 2454.5,336.5 Z"/></g>
<g><path style="opacity:0.975" fill="#0f264c" d="M 1864.5,384.5 C 1887.54,383.815 1909.71,387.815 1931,396.5C 1947.08,394.407 1963.08,392.074 1979,389.5C 1979.16,397.586 1978.32,405.586 1976.5,413.5C 1969.28,416.611 1962.28,419.944 1955.5,423.5C 1971.95,450.342 1971.12,476.675 1953,502.5C 1931.16,524.837 1904.66,534.17 1873.5,530.5C 1866.84,533.324 1862.51,538.157 1860.5,545C 1861.5,550 1864.5,553 1869.5,554C 1885.86,554.194 1902.19,554.86 1918.5,556C 1955.12,562.053 1971.28,583.553 1967,620.5C 1960.99,646.175 1945.16,662.341 1919.5,669C 1884.76,677.315 1850.43,675.981 1816.5,665C 1801.9,659.963 1791.4,650.463 1785,636.5C 1779.59,612.328 1787.59,593.995 1809,581.5C 1816.59,587.38 1824.09,593.38 1831.5,599.5C 1820.84,611.144 1821.51,622.31 1833.5,633C 1842.96,638.931 1853.29,642.264 1864.5,643C 1882.79,645.217 1900.12,642.217 1916.5,634C 1928.39,622.275 1928.39,610.608 1916.5,599C 1909.9,595.601 1902.9,593.601 1895.5,593C 1879.78,592.937 1864.11,592.271 1848.5,591C 1833.92,585.415 1822.76,575.915 1815,562.5C 1812.4,551.302 1815.23,541.802 1823.5,534C 1829.01,530.745 1834.68,527.745 1840.5,525C 1797.09,512.033 1779.92,483.199 1789,438.5C 1797.44,411.722 1815.28,394.889 1842.5,388C 1849.93,386.501 1857.26,385.334 1864.5,384.5 Z M 1866.5,418.5 C 1907.58,415.737 1924.42,434.404 1917,474.5C 1908.6,490.791 1895.1,498.457 1876.5,497.5C 1841.39,495.294 1827.56,476.961 1835,442.5C 1841.08,428.571 1851.58,420.571 1866.5,418.5 Z"/></g>
<g><path style="opacity:0.977" fill="#0f264c" d="M 510.5,385.5 C 572.462,380.294 603.795,408.794 604.5,471C 604.083,478.499 603.75,485.999 603.5,493.5C 563.833,493.5 524.167,493.5 484.5,493.5C 484.272,508.49 487.772,522.49 495,535.5C 505.742,547.902 519.242,552.402 535.5,549C 545.362,546.902 554.362,542.902 562.5,537C 568.7,531.798 574.533,526.298 580,520.5C 586.114,524.943 591.947,529.776 597.5,535C 600.219,537.382 602.553,540.049 604.5,543C 579.893,576.218 546.893,590.218 505.5,585C 471.615,580.329 450.449,561.495 442,528.5C 435.632,498.584 436.632,468.917 445,439.5C 456.182,408.477 478.015,390.477 510.5,385.5 Z M 520.5,414.5 C 539.475,413.06 551.642,421.393 557,439.5C 558.3,446.771 558.8,454.104 558.5,461.5C 534.167,461.5 509.833,461.5 485.5,461.5C 486.006,445.456 492.006,431.956 503.5,421C 508.882,417.712 514.549,415.545 520.5,414.5 Z"/></g>
<g><path style="opacity:0.975" fill="#0f264c" d="M 707.5,385.5 C 732.829,384.827 757.996,386.161 783,389.5C 785.114,405.301 786.948,421.134 788.5,437C 788.167,438.833 787.833,440.667 787.5,442.5C 778.215,443.64 768.881,443.806 759.5,443C 758.617,433.229 753.617,426.562 744.5,423C 729.995,419.443 715.995,421.109 702.5,428C 692.43,435.291 686.263,445.124 684,457.5C 681.106,474.443 680.773,491.443 683,508.5C 687.94,539.113 705.773,552.613 736.5,549C 742.883,547.65 748.883,545.317 754.5,542C 761.863,536.982 768.863,531.482 775.5,525.5C 782.969,533.761 789.969,542.428 796.5,551.5C 765.267,584.123 727.933,593.623 684.5,580C 661.605,569.402 646.772,551.902 640,527.5C 632.191,497.3 632.858,467.3 642,437.5C 653.603,407.133 675.437,389.8 707.5,385.5 Z"/></g>
<g><path style="opacity:0.976" fill="#0f264c" d="M 1175.5,385.5 C 1190.63,383.252 1204.63,386.085 1217.5,394C 1229.18,403.698 1234.68,416.198 1234,431.5C 1234.33,469.167 1234.67,506.833 1235,544.5C 1236.99,555.291 1243.49,559.625 1254.5,557.5C 1253.83,565.5 1253.17,573.5 1252.5,581.5C 1225.17,581.5 1197.83,581.5 1170.5,581.5C 1171.28,573.525 1171.61,565.525 1171.5,557.5C 1182.47,558.952 1188.63,554.286 1190,543.5C 1190.67,509.5 1190.67,475.5 1190,441.5C 1189.51,432.179 1184.68,426.845 1175.5,425.5C 1163.67,428.669 1153.84,435.003 1146,444.5C 1133.52,459.457 1122.52,475.457 1113,492.5C 1112.33,507.833 1112.33,523.167 1113,538.5C 1112.14,552.476 1118.64,558.809 1132.5,557.5C 1132.36,565.51 1132.02,573.51 1131.5,581.5C 1104.17,581.5 1076.83,581.5 1049.5,581.5C 1049.73,573.495 1050.06,565.495 1050.5,557.5C 1059.22,558.897 1065.05,555.563 1068,547.5C 1069.12,526.861 1069.62,506.195 1069.5,485.5C 1069.62,464.805 1069.12,444.139 1068,423.5C 1067.33,419.501 1065.17,416.668 1061.5,415C 1057.58,413.844 1053.58,413.344 1049.5,413.5C 1049.42,406.548 1050.09,399.715 1051.5,393C 1072.07,390.128 1092.74,388.961 1113.5,389.5C 1112.49,405.487 1112.32,421.487 1113,437.5C 1121.66,424.164 1131.83,411.997 1143.5,401C 1153.06,393.386 1163.73,388.219 1175.5,385.5 Z"/></g>
<g><path style="opacity:0.979" fill="#0f264c" d="M 1350.5,385.5 C 1364.54,385.134 1378.54,385.634 1392.5,387C 1427.64,394.473 1448.14,415.973 1454,451.5C 1459.88,483.237 1456.55,513.904 1444,543.5C 1431.13,566.341 1411.63,579.841 1385.5,584C 1366.7,586.506 1348.03,585.839 1329.5,582C 1298.51,571.339 1280.01,549.839 1274,517.5C 1269.92,492.612 1270.92,467.945 1277,443.5C 1289.3,408.761 1313.8,389.428 1350.5,385.5 Z M 1354.5,420.5 C 1388.06,417.553 1406.22,432.887 1409,466.5C 1412.06,488.144 1409.73,509.144 1402,529.5C 1390.87,546.779 1375.04,553.613 1354.5,550C 1339.63,547.652 1329.46,539.486 1324,525.5C 1315.07,498.032 1315.4,470.698 1325,443.5C 1331.21,431.115 1341.04,423.449 1354.5,420.5 Z"/></g>
<g><path style="opacity:0.979" fill="#0f264c" d="M 1653.5,385.5 C 1724.31,378.809 1759.64,410.975 1759.5,482C 1759.49,557.015 1722.15,591.348 1647.5,585C 1606.64,577.89 1582.81,553.723 1576,512.5C 1572.47,487.018 1574.47,462.018 1582,437.5C 1591.49,413.348 1608.65,397.515 1633.5,390C 1640.26,388.285 1646.93,386.785 1653.5,385.5 Z M 1657.5,420.5 C 1673.85,418.125 1688.02,422.458 1700,433.5C 1706.56,443.51 1710.56,454.51 1712,466.5C 1714.63,486.223 1712.97,505.556 1707,524.5C 1701.25,538.924 1690.75,547.424 1675.5,550C 1643.42,553.265 1625.58,538.765 1622,506.5C 1618.66,484.95 1620.66,463.95 1628,443.5C 1634.21,431.115 1644.04,423.449 1657.5,420.5 Z"/></g>
<g><path style="opacity:0.977" fill="#0f264c" d="M 2070.5,385.5 C 2132.21,380.213 2163.55,408.547 2164.5,470.5C 2164.01,478.163 2163.68,485.829 2163.5,493.5C 2123.83,493.5 2084.17,493.5 2044.5,493.5C 2044.73,505.531 2046.89,517.198 2051,528.5C 2060.59,546.207 2075.43,553.041 2095.5,549C 2105.86,546.818 2115.19,542.485 2123.5,536C 2129.37,531.131 2134.87,525.964 2140,520.5C 2148.82,527.32 2156.99,534.82 2164.5,543C 2139.89,576.218 2106.89,590.218 2065.5,585C 2024.21,577.971 2002.04,553.471 1999,511.5C 1996.08,485.996 1998.42,460.996 2006,436.5C 2017.68,406.982 2039.18,389.982 2070.5,385.5 Z M 2080.5,414.5 C 2099.47,413.06 2111.64,421.393 2117,439.5C 2118.3,446.771 2118.8,454.104 2118.5,461.5C 2094.17,461.5 2069.83,461.5 2045.5,461.5C 2046.01,445.456 2052.01,431.956 2063.5,421C 2068.88,417.712 2074.55,415.545 2080.5,414.5 Z"/></g>
<g><path style="opacity:0.976" fill="#0f264c" d="M 2311.5,385.5 C 2328.13,382.628 2343.13,386.128 2356.5,396C 2364.83,403.639 2369.33,413.139 2370,424.5C 2370.04,465.195 2370.71,505.862 2372,546.5C 2372.71,552.215 2375.88,555.715 2381.5,557C 2384.48,557.498 2387.48,557.665 2390.5,557.5C 2390.27,565.505 2389.94,573.505 2389.5,581.5C 2362.17,581.5 2334.83,581.5 2307.5,581.5C 2307.64,573.49 2307.98,565.49 2308.5,557.5C 2321.85,558.317 2328.02,551.984 2327,538.5C 2327.94,504.806 2327.61,471.14 2326,437.5C 2324.39,430.016 2319.72,426.016 2312,425.5C 2306.32,426.502 2301.16,428.669 2296.5,432C 2277.03,449.115 2261.53,469.281 2250,492.5C 2249.07,511.211 2249.4,529.877 2251,548.5C 2252.08,551.913 2254.24,554.413 2257.5,556C 2261.4,557.266 2265.4,557.766 2269.5,557.5C 2269.05,565.401 2268.38,573.234 2267.5,581C 2240.17,581.5 2212.84,581.667 2185.5,581.5C 2186.17,573.5 2186.83,565.5 2187.5,557.5C 2197.51,558.593 2203.35,554.26 2205,544.5C 2205.67,504.833 2205.67,465.167 2205,425.5C 2202.21,415.841 2195.71,411.841 2185.5,413.5C 2186.17,406.5 2186.83,399.5 2187.5,392.5C 2197.52,391.998 2207.52,391.165 2217.5,390C 2228.49,389.5 2239.49,389.333 2250.5,389.5C 2249.4,405.142 2249.23,420.808 2250,436.5C 2258.33,424.69 2267.5,413.523 2277.5,403C 2287.66,394.753 2299,388.92 2311.5,385.5 Z"/></g>
</svg>
